# xmcd CD database file
#
# Track frame offsets:
#	150
#	12022
#	24466
#	37376
#	51243
#	63502
#	73919
#	86206
#	101150
#	116072
#	128779
#	140608
#	154248
#	164860
#	177417
#	187787
#	199799
#	211188
#	223335
#	236562
#
# Disc length: 3269 seconds
#
# Revision: 2
# Processed by: cddbd v1.5.2PL0 Copyright (c) Steve Scherf et al.
# Submitted via: CDex 1.70beta1
#
DISCID=390cc314
DTITLE=Various Artist - Superhits Of Country CD 10
DYEAR=1900
DGENRE=
TTITLE0=Patsy Cline - A Poor Man's Roses
TTITLE1=Melre Haggard - Workin' Man Blues
TTITLE2=Porter Wagoner - The Carroll County Accident
TTITLE3=Billy Walker - Funny How Time Slips Away
TTITLE4=Jean Shepard and Ferlin Husky - Dear John
TTITLE5=Billie Jo Spears - I'm Gonna Be A Country Girl Again
TTITLE6=Hank Thompson - Oklahoma Hills
TTITLE7=Johnny Cash and Waylong Jennings - There Ain' No Good Chain Gang
TTITLE8=Ernest Tubb and Marty Robbins - Rainbow At Midnight
TTITLE9=Billie Jo Spears - '57 Chevrolet
TTITLE10=Don Gibson - Oh, Lonesome Me
TTITLE11=Patti Page - Tennessee Waltz
TTITLE12=Frankie Laine - Rawhide
TTITLE13=Kenny Rogers - Reuben James
TTITLE14=Roger Miller - Engine Engine No. 9
TTITLE15=Stonewall Jackson - Waterloo
TTITLE16=Ned Miller - Do What You Do, Do Well
TTITLE17=Ernest Tubb and Willie Nelson - Waltz Across Texas
TTITLE18=Slim Whitman - Red Sails In The Sunset
TTITLE19=Roger Miller - England Swings
EXTD=
EXTT0=
EXTT1=
EXTT2=
EXTT3=
EXTT4=
EXTT5=
EXTT6=
EXTT7=
EXTT8=
EXTT9=
EXTT10=
EXTT11=
EXTT12=
EXTT13=
EXTT14=
EXTT15=
EXTT16=
EXTT17=
EXTT18=
EXTT19=
PLAYORDER=
